<?xml version="1.0" encoding="UTF-8" standalone="no"?>
<!-- Created for Onboard -->
<svg id="svg2" xmlns:rdf="http://www.w3.org/1999/02/22-rdf-syntax-ns#" xmlns="http://www.w3.org/2000/svg" height="105" width="330" version="1.0" xmlns:cc="http://creativecommons.org/ns#" xmlns:dc="http://purl.org/dc/elements/1.1/">
 <metadata id="metadata3346">
  <rdf:RDF>
   <cc:Work rdf:about="">
    <dc:format>image/svg+xml</dc:format>
    <dc:type rdf:resource="http://purl.org/dc/dcmitype/StillImage"/>
   </cc:Work>
  </rdf:RDF>
 </metadata>
 <rect id="DD01" style="fill:#e5d8b2;stroke:#000000;stroke-width:1.26315784" height="25" width="44" y="0.5" x="0.5"/>
 <rect id="DD02" style="fill:#e5d8b2;stroke:#000000;stroke-width:1.26315784" height="25" width="44" y="0.5" x="46"/>
 <rect id="DD03" style="fill:#e5d8b2;stroke:#000000;stroke-width:1.26315784" height="25" width="44" y="0.5" x="92"/>
 <rect id="DD04" style="fill:#e5d8b2;stroke:#000000;stroke-width:1.26315784" height="25" width="44" y="0.5" x="138"/>
 <rect id="DD05" style="fill:#e5d8b2;stroke:#000000;stroke-width:1.26315784" height="25" width="44" y="0.5" x="184"/>
 <rect id="DD06" style="fill:#e5d8b2;stroke:#000000;stroke-width:1.26315784" height="25" width="44" y="0.5" x="230"/>
 <rect id="DD07" style="fill:#e5d8b2;stroke:#000000;stroke-width:1.26315784" height="25" width="44" y="0.5" x="276"/>
 
 <rect id="DD08" style="fill:#e5d8b2;stroke:#000000;stroke-width:1.26315784" height="25" width="44" y="26.5" x="0.5"/>
 <rect id="DD10" style="fill:#e5d8b2;stroke:#000000;stroke-width:1.26315784" height="25" width="44" y="26.5" x="46"/>
 <rect id="DC01" style="fill:#e5d8b2;stroke:#000000;stroke-width:1.26315784" height="25" width="44" y="26.5" x="92"/>.
 <rect id="DC02" style="fill:#e5d8b2;stroke:#000000;stroke-width:1.26315784" height="25" width="44" y="26.5" x="138"/>
 <rect id="DC03" style="fill:#e5d8b2;stroke:#000000;stroke-width:1.26315784" height="25" width="44" y="26.5" x="184"/>
 <rect id="DC04" style="fill:#e5d8b2;stroke:#000000;stroke-width:1.26315784" height="25" width="44" y="26.5" x="230"/>
 <rect id="DC05" style="fill:#e5d8b2;stroke:#000000;stroke-width:1.26315784" height="25" width="44" y="26.5" x="276"/>
 
 <rect id="DC06" style="fill:#e5d8b2;stroke:#000000;stroke-width:1.26315784" height="25" width="44" y="52.5" x="0.5"/>
 <rect id="DC07" style="fill:#e5d8b2;stroke:#000000;stroke-width:1.26315784" height="25" width="44" y="52.5" x="46"/>
 <rect id="DC08" style="fill:#e5d8b2;stroke:#000000;stroke-width:1.26315784" height="25" width="44" y="52.5" x="92"/>
 <rect id="DC09" style="fill:#e5d8b2;stroke:#000000;stroke-width:1.26315784" height="25" width="44" y="52.5" x="138"/>
 <rect id="DC10" style="fill:#e5d8b2;stroke:#000000;stroke-width:1.26315784" height="25" width="44" y="52.5" x="184"/>
 <rect id="DB01" style="fill:#e5d8b2;stroke:#000000;stroke-width:1.26315784" height="25" width="44" y="52.5" x="230"/>
 <rect id="DB02" style="fill:#e5d8b2;stroke:#000000;stroke-width:1.26315784" height="25" width="44" y="52.5" x="276"/>
 
 <rect id="DB03" style="fill:#e5d8b2;stroke:#000000;stroke-width:1.26315784" height="25" width="44" y="78.5" x="0.5"/>
 <rect id="DB04" style="fill:#e5d8b2;stroke:#000000;stroke-width:1.26315784" height="25" width="44" y="78.5" x="46"/>
 <rect id="DB05" style="fill:#e5d8b2;stroke:#000000;stroke-width:1.26315784" height="25" width="44" y="78.5" x="92"/>
 <rect id="DB06" style="fill:#e5d8b2;stroke:#000000;stroke-width:1.26315784" height="25" width="44" y="78.5" x="138"/>
 <rect id="DB07" style="fill:#e5d8b2;stroke:#000000;stroke-width:1.26315784" height="25" width="44" y="78.5" x="184"/>
 <rect id="DA01" style="fill:#e5d8b2;stroke:#000000;stroke-width:1.26315784" height="25" width="44" y="78.5" x="230"/>
 <rect id="DA02" style="fill:#e5d8b2;stroke:#000000;stroke-width:1.26315784" height="25" width="44" y="78.5" x="276"/>
 
 <rect id="SPCE" style="stroke:#000;fill:#d8cca5" height="25" width="44" y="104.5" x="0.5"/>
 <rect id="BKSP" style="stroke:#000;fill:#e5d8b2" height="25" width="44" y="104.5" x="46"/>
 <rect id="layer0" style="stroke:#000;fill:#e5d8b2" height="25" width="44" y="104.5" x="92"/>
 <rect id="layer1" style="stroke:#000;fill:#e5d8b2" height="25" width="44" y="104.5" x="138"/>
 <rect id="layer2" style="stroke:#000;fill:#e5d8b2" height="25" width="44" y="104.5" x="184"/>
 <rect id="layer3" style="stroke:#000;fill:#e5d8b2" height="25" width="44" y="104.5" x="230"/>
 <rect id="layer4" style="stroke:#000;fill:#e5d8b2" height="25" width="44" y="104.5" x="276"/>
</svg>
