<?xml version="1.0" encoding="UTF-8" standalone="no"?>
<!-- Created for Onboard -->
<svg id="svg2" xmlns:rdf="http://www.w3.org/1999/02/22-rdf-syntax-ns#" xmlns="http://www.w3.org/2000/svg" height="105" width="330" version="1.0" xmlns:cc="http://creativecommons.org/ns#" xmlns:dc="http://purl.org/dc/elements/1.1/">
 <metadata id="metadata3346">
  <rdf:RDF>
   <cc:Work rdf:about="">
    <dc:format>image/svg+xml</dc:format>
    <dc:type rdf:resource="http://purl.org/dc/dcmitype/StillImage"/>
   </cc:Work>
  </rdf:RDF>
 </metadata>
 
 <rect id="RST1" style="stroke:#000;fill:#e5d8b2" height="25" width="35" y="0.5" x="0.5"/> <!-- SKIP Button -->  
 <rect id="AC01" style="stroke:#000;fill:#e5d8b2" height="25" width="35" y="0.5" x="36.0"/>
 <rect id="AB05" style="stroke:#000;fill:#e5d8b2" height="25" width="35" y="0.5" x="71.5"/>	
 <rect id="AB03" style="stroke:#000;fill:#e5d8b2" height="25" width="35" y="0.5" x="107.0"/>
 <rect id="AC03" style="stroke:#000;fill:#e5d8b2" height="25" width="35" y="0.5" x="142.5"/>
 <rect id="AD03" style="stroke:#000;fill:#e5d8b2" height="25" width="35" y="0.5" x="178.0"/>
 <rect id="AC04" style="stroke:#000;fill:#e5d8b2" height="25" width="35" y="0.5" x="213.5"/>
 <rect id="AC05" style="stroke:#000;fill:#e5d8b2" height="25" width="35" y="0.5" x="249.0"/>
 <rect id="AC06" style="stroke:#000;fill:#e5d8b2" height="25" width="35" y="0.5" x="284.5"/>
 
 <rect id="RST2" style="stroke:#000;fill:#e5d8b2" height="25" width="35" y="26.5" x="0.5"/> <!-- SKIP Button -->  
 <rect id="AD08" style="stroke:#000;fill:#e5d8b2" height="25" width="35" y="26.5" x="36.0"/>
 <rect id="AC07" style="stroke:#000;fill:#e5d8b2" height="25" width="35" y="26.5" x="71.5"/>
 <rect id="AC08" style="stroke:#000;fill:#e5d8b2" height="25" width="35" y="26.5" x="107.5"/>
 <rect id="AC09" style="stroke:#000;fill:#e5d8b2" height="25" width="35" y="26.5" x="142.5"/>
 <rect id="AB07" style="stroke:#000;fill:#e5d8b2" height="25" width="35" y="26.5" x="178.0"/>
 <rect id="AB06" style="stroke:#000;fill:#e5d8b2" height="25" width="35" y="26.5" x="213.5"/>
 <rect id="AD09" style="stroke:#000;fill:#e5d8b2" height="25" width="35" y="26.5" x="249.0"/>
 <rect id="AD10" style="stroke:#000;fill:#e5d8b2" height="25" width="35" y="26.5" x="284.5"/>

 <rect id="RST3" style="stroke:#000;fill:#e5d8b2" height="25" width="35" y="52.5" x="0.5"/> <!-- SKIP Button -->  
 <rect id="AD01" style="stroke:#000;fill:#e5d8b2" height="25" width="35" y="52.5" x="36.0"/> 
 <rect id="AD04" style="stroke:#000;fill:#e5d8b2" height="25" width="35" y="52.5" x="71.5"/> 
 <rect id="AC02" style="stroke:#000;fill:#e5d8b2" height="25" width="35" y="52.5" x="107.5"/>
 <rect id="AD05" style="stroke:#000;fill:#e5d8b2" height="25" width="35" y="52.5" x="142.5"/>
 <rect id="AD07" style="stroke:#000;fill:#e5d8b2" height="25" width="35" y="52.5" x="178.0"/>
 <rect id="AB04" style="stroke:#000;fill:#e5d8b2" height="25" width="35" y="52.5" x="213.5"/>
 <rect id="AD02" style="stroke:#000;fill:#e5d8b2" height="25" width="35" y="52.5" x="249.0"/>
 <rect id="AB02" style="stroke:#000;fill:#e5d8b2" height="25" width="35" y="52.5" x="284.5"/>
 
 <rect id="RST4" style="stroke:#000;fill:#e5d8b2" height="25" width="35" y="78.5" x="0.5"/> <!-- SKIP Button -->  
 <rect id="AD06" style="stroke:#000;fill:#e5d8b2" height="25" width="35" y="78.5" x="36.0"/>
 <rect id="AB01" style="stroke:#000;fill:#e5d8b2" height="25" width="35" y="78.5" x="71.5"/>
 <rect id="SPCE" style="stroke:#000;fill:#e5d8b2" height="25" width="70" y="78.5" x="107.5"/>
 <rect id="layer0" style="stroke:#000;fill:#e5d8b2" height="25" width="35" y="78.5" x="178.5"/>
 <rect id="layer2" style="stroke:#000;fill:#e5d8b2" height="25" width="35" y="78.5" x="213.5"/>
 <rect id="layer3" style="stroke:#000;fill:#e5d8b2" height="25" width="35" y="78.5" x="249.5"/>
 <rect id="layer4" style="stroke:#000;fill:#e5d8b2" height="25" width="35" y="78.5" x="284.5"/>


</svg>
